<mxfile host="app.diagrams.net" modified="2024-04-23T18:04:16.692Z" agent="Mozilla/5.0 (Macintosh; Intel Mac OS X 10_15_7) AppleWebKit/537.36 (KHTML, like Gecko) Chrome/124.0.0.0 Safari/537.36" version="24.2.3" etag="wEmLCFD7oZQYwrLASbcr" type="github">
  <diagram name="Page-1" id="v0tTaWyq1nLYoC63SeAB">
    <mxGraphModel>
      <root>
        <mxCell id="0" />
        <mxCell id="1" parent="0" />
      </root>
    </mxGraphModel>
  </diagram>
</mxfile>
